<?xml version="1.0" encoding="UTF-8" standalone="no"?>
<svg width="26px" height="18px" viewBox="0 0 26 18" version="1.1" xmlns="http://www.w3.org/2000/svg" xmlns:xlink="http://www.w3.org/1999/xlink">
    <!-- Generator: Sketch 39.1 (31720) - http://www.bohemiancoding.com/sketch -->
    <title>YouTube_light_color_icon</title>
    <desc>Created with Sketch.</desc>
    <defs>
        <polygon id="path-1" points="7.00152642 28.9984979 32.9860078 28.9984979 32.9860078 11.0144451 7.00152642 11.0144451"></polygon>
    </defs>
    <g id="Page-1" stroke="none" stroke-width="1" fill="none" fill-rule="evenodd">
        <g id="Desktop-Copy-4" transform="translate(-740.000000, -480.000000)">
            <g id="YouTube_light_color_icon" transform="translate(733.000000, 469.000000)">
                <rect id="Rectangle-14-Copy" x="0" y="0" width="40" height="40"></rect>
                <mask id="mask-2" fill="white">
                    <use xlink:href="#path-1"></use>
                </mask>
                <g id="Clip-2"></g>
                <polyline id="Fill-1" fill="#DFDEDA" mask="url(#mask-2)" points="23.4666751 20.1854075 17.3090509 16.1391627 24.3305773 19.7441697 23.4666751 20.1854075"></polyline>
                <path d="M17.3102466,23.3241419 L17.3090509,16.1391627 L24.3305773,19.7441697 L17.3102466,23.3241419 L17.3102466,23.3241419 Z M32.7265166,14.894459 C32.7265166,14.894459 32.4726223,13.1322865 31.6934364,12.3562837 C30.7052838,11.3377942 29.5976634,11.3327371 29.0897221,11.2731293 C25.4533601,11.0144451 19.9986262,11.0144451 19.9986262,11.0144451 L19.9873307,11.0144451 C19.9873307,11.0144451 14.5327241,11.0144451 10.8962348,11.2731293 C10.3882681,11.3327371 9.28105479,11.3377942 8.29254599,12.3562837 C7.51341096,13.1322865 7.2598728,14.894459 7.2598728,14.894459 C7.2598728,14.894459 7,16.9638331 7,19.0331822 L7,20.9732017 C7,23.0425257 7.2598728,25.1118748 7.2598728,25.1118748 C7.2598728,25.1118748 7.51341096,26.8740723 8.29254599,27.6500751 C9.28105479,28.6685897 10.5795284,28.63637 11.157863,28.7431182 C13.2367691,28.9392907 19.9930039,29 19.9930039,29 C19.9930039,29 25.4533601,28.9919138 29.0897221,28.7332545 C29.5976634,28.6736217 30.7052838,28.6685897 31.6934364,27.6500751 C32.4726223,26.8740723 32.7265166,25.1118748 32.7265166,25.1118748 C32.7265166,25.1118748 32.9860078,23.0425257 32.9860078,20.9732017 L32.9860078,19.0331822 C32.9860078,16.9638331 32.7265166,14.894459 32.7265166,14.894459 L32.7265166,14.894459 Z" id="Fill-3" fill="#68767C" mask="url(#mask-2)"></path>
            </g>
        </g>
    </g>
</svg>