<?xml version="1.0" encoding="UTF-8" standalone="no"?>
<svg width="38px" height="32px" viewBox="0 0 38 32" version="1.1" xmlns="http://www.w3.org/2000/svg" xmlns:xlink="http://www.w3.org/1999/xlink">
    <!-- Generator: Sketch 39.1 (31720) - http://www.bohemiancoding.com/sketch -->
    <title>speechmarks-white</title>
    <desc>Created with Sketch.</desc>
    <defs></defs>
    <g id="Page-1" stroke="none" stroke-width="1" fill="none" fill-rule="evenodd">
        <g id="Partnerships-Page" transform="translate(-58.000000, -827.000000)" fill="#84B308">
            <g id="Group-14-Copy" transform="translate(42.000000, 787.000000)">
                <g id="Group-12" transform="translate(1.000000, 0.000000)">
                    <g id="Group-10" transform="translate(-1.369565, 1.000000)">
                        <g id="Group-6" transform="translate(16.000000, 39.000000)">
                            <path d="M10.203125,16.6757812 L15.753125,16.6757812 L15.753125,31.4757812 L0.953125,31.4757812 L0.953125,20.2757812 C0.953125,8.04238675 5.886409,1.49245225 15.753125,0.62578125 L15.753125,6.17578125 C12.0531065,7.20911975 10.203125,10.1757567 10.203125,15.0757812 L10.203125,16.6757812 Z M32.403125,16.6757812 L37.953125,16.6757812 L37.953125,31.4757812 L23.153125,31.4757812 L23.153125,20.2757812 C23.153125,8.04238675 28.086409,1.49245225 37.953125,0.62578125 L37.953125,6.17578125 C34.2531065,7.20911975 32.403125,10.1757567 32.403125,15.0757812 L32.403125,16.6757812 Z" id="speechmarks-white"></path>
                        </g>
                    </g>
                </g>
            </g>
        </g>
    </g>
</svg>