<?xml version="1.0" encoding="UTF-8" standalone="no"?>
<svg width="26px" height="21px" viewBox="0 0 26 21" version="1.1" xmlns="http://www.w3.org/2000/svg" xmlns:xlink="http://www.w3.org/1999/xlink">
    <!-- Generator: Sketch 39.1 (31720) - http://www.bohemiancoding.com/sketch -->
    <title>Twitter_logo_blue</title>
    <desc>Created with Sketch.</desc>
    <defs>
        <polygon id="path-1" points="7.00569343 30.9943498 32.9421168 30.9943498 32.9421168 10.0774081 7.00569343 10.0774081"></polygon>
    </defs>
    <g id="Page-1" stroke="none" stroke-width="1" fill="none" fill-rule="evenodd">
        <g id="Desktop-Copy-4" transform="translate(-690.000000, -479.000000)">
            <g id="Twitter_logo_blue" transform="translate(683.000000, 469.000000)">
                <rect id="Rectangle-14" x="0" y="0" width="40" height="40"></rect>
                <mask id="mask-2" fill="white">
                    <use xlink:href="#path-1"></use>
                </mask>
                <g id="Clip-2"></g>
                <path d="M15.1586861,31 C12.1530292,31 9.35537226,30.1256278 7,28.627 C7.41637956,28.6757803 7.84006569,28.7007354 8.26963504,28.7007354 C10.7631679,28.7007354 13.0580949,27.8563094 14.8796131,26.439704 C12.5506204,26.3970448 10.5850584,24.8699776 9.90782482,22.7714843 C10.2327299,22.8331659 10.5661752,22.8662197 10.9091095,22.8662197 C11.3945693,22.8662197 11.8647518,22.801713 12.3114015,22.6809865 C9.87651095,22.1958206 8.0419927,20.0609776 8.0419927,17.5018027 C8.0419927,17.4795785 8.0419927,17.4574484 8.04237226,17.4354126 C8.7600292,17.8310224 9.58064234,18.0686143 10.4531606,18.0960179 C9.02505839,17.148852 8.08535766,15.5321345 8.08535766,13.6996726 C8.08535766,12.7316951 8.34782482,11.8243632 8.8059562,11.0442556 C11.4310073,14.2398341 15.3527372,16.3426592 19.7761533,16.5629238 C19.685438,16.1763543 19.6382774,15.7732108 19.6382774,15.3592377 C19.6382774,12.4423094 22.0213577,10.0774081 24.960781,10.0774081 C26.4915547,10.0774081 27.8747737,10.7188969 28.8456934,11.7454484 C30.0580146,11.5085157 31.1970803,11.0689283 32.2254088,10.4636951 C31.8280073,11.6970448 30.984146,12.7321659 29.885219,13.3858969 C30.9618467,13.2582018 31.9876131,12.974278 32.9421168,12.5541839 C32.2285401,13.6134126 31.3261314,14.543722 30.2863212,15.2884215 C30.2965693,15.5149013 30.3016934,15.7426996 30.3016934,15.971722 C30.3016934,22.9515381 24.9483504,31 15.1586861,31" id="Fill-1" fill="#FFFFFF" mask="url(#mask-2)"></path>
            </g>
        </g>
    </g>
</svg>