<?xml version="1.0" encoding="UTF-8" standalone="no"?>
<svg width="25px" height="25px" viewBox="0 0 25 25" version="1.1" xmlns="http://www.w3.org/2000/svg" xmlns:xlink="http://www.w3.org/1999/xlink">
    <!-- Generator: Sketch 39.1 (31720) - http://www.bohemiancoding.com/sketch -->
    <title>Group 5</title>
    <desc>Created with Sketch.</desc>
    <defs>
        <polygon id="path-1" points="9.36329582e-06 24.9901685 24.9900843 24.9901685 24.9900843 3.74531837e-05 9.36329582e-06 3.74531837e-05"></polygon>
    </defs>
    <g id="Page-1" stroke="none" stroke-width="1" fill="none" fill-rule="evenodd">
        <g id="Desktop-Copy-4" transform="translate(-839.000000, -477.000000)">
            <g id="In-White-0p5in-R-Copy" transform="translate(831.000000, 469.000000)">
                <g id="Group-5">
                    <rect id="Rectangle-14-Copy-2" x="0" y="0" width="40" height="40"></rect>
                    <g id="Page-1" transform="translate(8.000000, 8.000000)">
                        <mask id="mask-2" fill="white">
                            <use xlink:href="#path-1"></use>
                        </mask>
                        <g id="Clip-2"></g>
                        <path d="M23.6108708,3.74531837e-05 L1.37922285,3.74531837e-05 C0.617425094,3.74531837e-05 9.36329582e-06,0.617453184 9.36329582e-06,1.37925094 L9.36329582e-06,23.6108989 C9.36329582e-06,24.372603 0.617425094,24.990206 1.37922285,24.990206 L13.3480431,24.990206 L13.3480431,15.3126779 L10.0913015,15.3126779 L10.0913015,11.5411423 L13.3480431,11.5411423 L13.3480431,8.75977528 C13.3480431,5.53205993 15.3193914,3.77447566 18.1987921,3.77447566 C19.5780993,3.77447566 20.7634925,3.87709738 21.1089045,3.92297753 L21.1089045,7.2961985 L19.1119007,7.29713483 C17.5459831,7.29713483 17.242706,8.04123596 17.242706,9.13318352 L17.242706,11.5411423 L20.9774438,11.5411423 L20.4912079,15.3126779 L17.242706,15.3126779 L17.242706,24.990206 L23.6108708,24.990206 C24.3725749,24.990206 24.9900843,24.372603 24.9900843,23.6108989 L24.9900843,1.37925094 C24.9900843,0.617453184 24.3725749,3.74531837e-05 23.6108708,3.74531837e-05" id="Fill-1" fill="#FEFEFE" mask="url(#mask-2)"></path>
                    </g>
                </g>
            </g>
        </g>
    </g>
</svg>