<?xml version="1.0" encoding="UTF-8" standalone="no"?>
<svg width="26px" height="26px" viewBox="0 0 26 26" version="1.1" xmlns="http://www.w3.org/2000/svg" xmlns:xlink="http://www.w3.org/1999/xlink">
    <!-- Generator: Sketch 39.1 (31720) - http://www.bohemiancoding.com/sketch -->
    <title>In-White-0p5in-R</title>
    <desc>Created with Sketch.</desc>
    <defs></defs>
    <g id="Page-1" stroke="none" stroke-width="1" fill="none" fill-rule="evenodd">
        <g id="Desktop-Copy-4" transform="translate(-792.000000, -476.000000)">
            <g id="In-White-0p5in-R" transform="translate(785.000000, 469.000000)">
                <g id="Group-5">
                    <rect id="Rectangle-14-Copy-2" x="0" y="0" width="40" height="40"></rect>
                    <path d="M29.1556111,29.1548889 L25.2996667,29.1548889 L25.2996667,23.1207222 C25.2996667,21.6820556 25.2751111,19.831 23.2962222,19.831 C21.2891667,19.831 20.9829444,21.3989444 20.9829444,23.0181667 L20.9829444,29.1548889 L17.1313333,29.1548889 L17.1313333,16.7471111 L20.8276667,16.7471111 L20.8276667,18.4436111 L20.8811111,18.4436111 C21.3953333,17.4678889 22.6534444,16.4394444 24.5290556,16.4394444 C28.4341111,16.4394444 29.1556111,19.0083889 29.1556111,22.3501111 L29.1556111,29.1548889 L29.1556111,29.1548889 Z M12.7835556,15.0520556 C11.5449444,15.0520556 10.5461111,14.0503333 10.5461111,12.8153333 C10.5461111,11.5810556 11.5449444,10.5793333 12.7835556,10.5793333 C14.0171111,10.5793333 15.0181111,11.5810556 15.0181111,12.8153333 C15.0181111,14.0503333 14.0171111,15.0520556 12.7835556,15.0520556 L12.7835556,15.0520556 Z M10.8523333,29.1548889 L14.7126111,29.1548889 L14.7126111,16.7471111 L10.8523333,16.7471111 L10.8523333,29.1548889 Z M31.076,7 L8.9175,7 C7.85944444,7 7,7.83922222 7,8.87488889 L7,31.1236667 C7,32.1593333 7.85944444,33 8.9175,33 L31.076,33 C32.1362222,33 32.9992778,32.1593333 32.9992778,31.1236667 L32.9992778,8.87488889 C32.9992778,7.83922222 32.1362222,7 31.076,7 L31.076,7 Z" id="Fill-4" fill="#68767C"></path>
                </g>
            </g>
        </g>
    </g>
</svg>